<?xml version="1.0" standalone="no"?>
<!DOCTYPE svg PUBLIC "-//W3C//DTD SVG 20010904//EN"
 "http://www.w3.org/TR/2001/REC-SVG-20010904/DTD/svg10.dtd">
<svg version="1.0" xmlns="http://www.w3.org/2000/svg"
 width="1024.000000pt" height="1024.000000pt" viewBox="0 0 1024.000000 1024.000000"
 preserveAspectRatio="xMidYMid meet">
<metadata>
Created by potrace 1.14, written by Peter Selinger 2001-2017
</metadata>
<g transform="translate(0.000000,1024.000000) scale(0.100000,-0.100000)"
fill="#000000" stroke="none">
<path d="M5133 8759 c-77 -22 -163 -176 -163 -292 0 -148 67 -278 238 -461 41
-44 90 -104 109 -133 56 -89 78 -237 51 -355 -14 -59 -47 -133 -48 -105 0 12
-8 17 -29 17 -16 0 -37 3 -47 7 -13 5 -15 3 -9 -8 7 -11 5 -11 -10 1 -11 9
-16 10 -11 3 4 -8 2 -13 -8 -13 -8 0 -17 6 -19 13 -3 6 -6 1 -7 -13 -1 -23 -2
-23 -10 -5 l-9 20 -1 -20 c-1 -11 -4 -14 -7 -7 -8 20 -26 14 -20 -8 3 -11 1
-17 -5 -14 -17 11 -58 12 -51 1 4 -6 -2 -8 -15 -5 -12 3 -26 0 -32 -7 -23 -28
-36 -6 -32 53 12 171 -111 394 -273 496 -61 39 -101 55 -233 96 -260 81 -403
269 -344 454 12 37 13 51 2 76 -13 32 -55 60 -88 60 -29 0 -70 -37 -94 -83
-30 -60 -37 -204 -13 -278 60 -180 216 -329 405 -387 19 -6 75 -23 123 -38
132 -39 219 -112 279 -233 29 -57 32 -74 31 -141 0 -43 -6 -86 -12 -96 -11
-18 -12 -18 -6 2 3 12 3 28 -1 37 -5 14 -7 14 -24 -1 -15 -12 -17 -19 -8 -29
6 -7 8 -16 4 -20 -3 -3 -6 -1 -6 6 0 7 -5 9 -10 6 -6 -4 -7 -11 -4 -17 4 -7 2
-8 -5 -4 -6 4 -9 11 -6 15 2 5 -6 9 -20 9 -21 0 -22 -2 -9 -15 18 -18 19 -29
1 -14 -10 8 -17 7 -26 -2 -11 -10 -12 -8 -7 10 4 12 2 24 -5 29 -8 5 -10 2 -7
-8 4 -8 2 -21 -3 -29 -7 -12 -9 -12 -10 1 -1 8 -1 18 0 23 0 4 -4 7 -9 7 -6 0
-10 -12 -10 -26 0 -21 -4 -25 -20 -21 -11 3 -20 1 -20 -4 0 -6 -8 -9 -17 -7
-10 2 -17 -2 -16 -9 2 -7 -4 -10 -13 -6 -9 3 -14 0 -12 -8 2 -10 -8 -14 -34
-13 -21 1 -35 -3 -32 -8 7 -11 -56 -37 -75 -30 -9 3 -12 1 -7 -6 4 -7 2 -12
-3 -12 -6 0 -11 11 -11 25 0 14 -4 25 -8 25 -5 0 -14 19 -21 42 -31 101 -115
213 -210 277 -164 111 -312 151 -565 151 -138 0 -228 20 -304 69 -75 49 -120
109 -128 175 -9 61 -41 96 -90 96 -53 0 -84 -34 -93 -104 -7 -51 -5 -68 17
-124 30 -78 124 -184 200 -225 105 -57 161 -68 392 -77 276 -10 354 -32 468
-135 113 -102 152 -195 152 -364 l0 -109 -66 -52 c-36 -28 -67 -50 -68 -48 -1
2 -17 27 -35 56 -48 75 -143 156 -236 202 -97 47 -126 52 -280 51 -130 -1
-131 -1 -405 -101 -135 -49 -193 -61 -276 -61 -85 1 -129 9 -189 35 -107 48
-161 121 -176 235 -6 53 -13 70 -34 88 -79 69 -174 -17 -160 -144 18 -168 174
-332 366 -383 69 -19 79 -20 174 -25 103 -4 193 16 355 80 142 55 247 85 320
90 74 4 171 -15 231 -46 60 -30 126 -101 154 -166 l26 -57 -49 -50 c-27 -28
-62 -68 -79 -88 -25 -29 -34 -34 -42 -24 -6 7 -57 36 -114 65 -94 46 -110 51
-185 55 -45 2 -100 0 -123 -5 -39 -9 -135 -48 -169 -69 -8 -6 -28 -16 -45 -24
-16 -7 -64 -30 -106 -49 -173 -83 -323 -90 -474 -22 -16 7 -55 23 -85 36 -30
12 -60 26 -66 31 -10 7 -74 32 -119 46 -11 3 -58 6 -105 6 -74 1 -85 -1 -82
-16 3 -22 -3 -24 -68 -32 -132 -15 -252 -91 -270 -170 -26 -119 108 -181 171
-79 67 108 217 77 463 -98 211 -149 414 -152 741 -11 105 45 135 52 221 54 89
1 115 -4 196 -39 l57 -25 -20 -41 c-12 -22 -23 -51 -25 -65 -3 -14 -7 -29 -9
-32 -2 -4 -49 -10 -104 -13 -158 -10 -230 -37 -511 -193 -157 -87 -243 -109
-400 -101 -63 3 -131 10 -150 16 -71 20 -156 39 -205 46 -27 3 -58 8 -67 11
-26 8 -22 -19 8 -55 18 -22 35 -31 56 -31 19 0 28 -4 25 -12 -2 -7 -9 -12 -15
-11 -144 32 -316 17 -412 -34 -70 -38 -110 -88 -110 -138 0 -44 10 -62 50 -89
36 -23 53 -20 101 20 61 51 93 65 162 71 78 6 163 -15 272 -68 107 -53 196
-73 325 -72 164 1 301 46 464 155 150 100 255 143 375 153 73 6 83 5 78 -8 -3
-8 -9 -58 -13 -110 -5 -75 -10 -97 -23 -101 -9 -3 -29 -14 -46 -25 -16 -11
-38 -20 -48 -20 -10 -1 -15 -5 -12 -11 3 -5 0 -10 -8 -10 -7 0 -23 -9 -34 -19
-35 -33 -192 -107 -320 -150 -168 -57 -273 -71 -533 -71 -187 0 -225 -3 -290
-21 -79 -21 -141 -53 -200 -101 l-35 -28 -278 0 c-256 0 -281 -2 -316 -20 -39
-19 -51 -36 -51 -71 0 -29 26 -75 47 -83 9 -4 1700 -7 3756 -6 2784 0 3745 3
3761 12 44 23 59 75 36 119 -24 44 -54 49 -321 49 l-251 0 -84 50 c-155 94
-254 113 -508 99 -181 -10 -276 -6 -366 16 -30 8 -67 16 -82 19 -39 7 -161 48
-172 58 -6 4 -17 8 -25 8 -20 1 -222 101 -241 120 -10 10 -117 60 -128 60 -8
0 -12 34 -12 111 l0 112 83 -5 c115 -8 204 -42 358 -138 73 -45 147 -89 166
-96 110 -47 317 -68 430 -45 42 8 199 67 298 111 39 17 67 22 134 22 84 0 120
-17 182 -83 38 -41 52 -49 81 -49 46 0 86 32 94 75 9 50 -1 80 -43 126 -46 51
-103 83 -173 99 -30 7 -66 15 -80 19 -14 4 -51 4 -82 1 -31 -3 -54 -2 -50 2 4
4 26 9 50 11 50 5 59 11 44 30 -7 8 -9 17 -6 20 6 5 -7 9 -69 22 -13 3 -17 -1
-13 -12 5 -12 3 -13 -7 -5 -7 6 -24 11 -37 10 -39 -1 -168 -27 -240 -48 -98
-28 -210 -34 -310 -17 -108 19 -157 39 -327 131 -182 99 -263 125 -384 127
-52 1 -107 -2 -122 -6 -15 -4 -27 -3 -25 1 1 5 -8 42 -21 83 l-23 75 24 18
c46 36 153 61 241 56 71 -4 102 -13 225 -62 79 -32 151 -59 160 -61 10 -1 35
-8 57 -13 72 -19 158 -21 250 -6 128 21 181 48 355 174 116 85 194 112 290 98
47 -6 64 -14 94 -44 33 -33 40 -36 79 -31 101 14 118 123 32 200 -21 19 -129
74 -155 79 -8 2 -17 6 -20 10 -12 16 -129 39 -185 37 -113 -5 -174 -25 -319
-107 -56 -31 -105 -57 -111 -58 -5 -1 -29 -7 -53 -13 -50 -14 -200 -13 -252 2
-19 5 -76 29 -126 53 -50 24 -96 44 -102 44 -6 0 -15 6 -19 13 -15 23 -108 65
-171 78 -83 16 -191 6 -269 -25 -68 -27 -76 -32 -139 -93 -39 -37 -50 -40 -45
-10 1 5 -3 6 -8 3 -5 -4 -24 15 -42 41 -18 26 -49 65 -68 86 l-35 39 24 46
c43 80 115 149 199 189 72 36 81 38 176 37 98 0 105 -2 315 -73 200 -69 221
-74 320 -78 192 -9 359 50 478 169 89 89 142 204 142 307 0 39 -39 93 -75 103
-73 19 -118 -26 -129 -132 -10 -85 -74 -163 -174 -214 -146 -73 -269 -68 -519
22 -231 83 -226 82 -359 82 -176 0 -278 -34 -398 -134 -45 -37 -127 -137 -139
-168 -3 -8 -20 2 -47 28 -41 40 -43 45 -48 115 -3 52 -7 68 -13 54 -13 -31 -2
105 12 144 41 116 148 234 261 285 116 53 153 58 382 53 230 -6 279 1 362 50
69 41 126 104 166 182 30 59 33 73 33 153 0 80 -2 90 -25 112 -14 14 -42 28
-65 31 -34 6 -44 3 -68 -19 -21 -20 -27 -34 -27 -69 0 -105 -69 -206 -165
-240 -43 -15 -81 -17 -265 -15 -249 3 -270 -1 -435 -85 -83 -42 -115 -66 -185
-137 -47 -47 -95 -106 -107 -130 -50 -103 -63 -135 -64 -154 0 -12 -7 -2 -16
24 -14 40 -17 42 -24 22 -5 -12 -12 -22 -15 -22 -4 0 -5 2 -2 5 3 3 -17 29
-46 58 -28 28 -50 55 -48 60 1 5 -2 6 -8 2 -6 -4 -8 -15 -5 -25 3 -10 0 -22
-6 -26 -9 -5 -10 -2 -6 9 7 19 -8 23 -18 7 -11 -18 -34 8 -27 32 3 14 1 19 -6
14 -22 -13 -33 30 -17 67 42 101 53 272 25 399 -30 137 -73 214 -196 353 -58
66 -119 138 -134 161 -40 58 -63 134 -57 188 7 54 16 73 52 106 67 62 64 125
-6 160 -42 22 -41 22 -86 9z m384 -1451 c-3 -8 -6 -5 -6 6 -1 11 2 17 5 13 3
-3 4 -12 1 -19z m-278 -325 c344 -59 696 -271 905 -543 111 -144 210 -350 242
-499 26 -124 28 -152 15 -243 -7 -51 -17 -100 -23 -108 -8 -12 -9 -12 -4 2 3
10 1 20 -5 24 -6 3 -8 13 -4 23 4 10 3 13 -4 6 -6 -6 -6 -27 -2 -52 5 -24 4
-40 0 -37 -5 3 -9 15 -9 26 0 15 -10 6 -36 -33 -72 -108 -187 -164 -322 -155
-86 6 -161 26 -302 81 -178 70 -225 87 -380 141 -85 29 -171 55 -190 58 -19 2
-75 10 -125 16 -216 30 -590 -22 -800 -110 -11 -5 -56 -23 -100 -40 -44 -17
-95 -41 -113 -52 -19 -12 -51 -23 -71 -25 -49 -5 -100 -33 -150 -82 -23 -22
-50 -45 -61 -51 -11 -6 -17 -16 -14 -22 4 -7 2 -8 -5 -4 -15 10 -43 -13 -34
-28 4 -8 3 -8 -6 0 -17 16 -5 36 37 61 29 17 32 22 16 23 -11 0 -29 -7 -40
-15 -28 -21 -32 -19 -36 26 -4 41 -2 43 87 126 92 86 227 182 346 245 73 39
250 109 319 127 275 69 574 77 790 21 19 -5 46 -11 60 -14 59 -12 149 -37 200
-55 77 -27 111 -33 224 -38 76 -4 108 -1 141 12 130 49 189 148 165 279 -24
127 -136 282 -268 369 -178 118 -314 158 -537 160 -204 1 -290 -33 -302 -120
-5 -35 -2 -45 20 -67 36 -36 88 -43 156 -21 66 22 119 26 192 14 30 -5 70 -11
89 -14 70 -11 186 -58 252 -102 76 -50 129 -106 164 -175 31 -62 31 -91 -3
-117 -24 -20 -28 -20 -47 -6 -22 16 -140 75 -150 75 -3 0 -30 11 -60 25 -30
14 -60 25 -65 25 -6 0 -19 4 -29 10 -9 5 -37 15 -62 21 -25 7 -49 14 -55 15
-67 20 -231 56 -269 60 -27 2 -52 7 -55 9 -2 3 -13 -2 -23 -12 -11 -9 -18 -11
-18 -5 0 7 -7 12 -16 12 -14 0 -15 -2 -3 -17 13 -17 13 -17 -6 -1 -11 9 -39
20 -63 24 -35 5 -43 4 -49 -12 -10 -30 -20 -32 -76 -17 -60 15 -99 17 -112 4
-6 -5 -37 -11 -70 -14 -33 -3 -71 -8 -85 -11 -106 -22 -165 -38 -170 -46 -3
-5 -19 -11 -36 -14 -17 -3 -49 -13 -70 -23 -21 -9 -42 -16 -46 -15 -5 1 -8 -2
-8 -6 0 -4 -24 -17 -52 -27 -64 -23 -180 -90 -251 -146 -110 -86 -125 -100
-120 -118 3 -11 -1 -18 -11 -18 -20 0 -20 6 -1 103 59 307 242 604 500 809 28
22 52 43 53 48 2 4 9 7 16 7 7 0 31 13 54 29 120 87 397 191 582 218 19 3 37
7 39 9 10 9 290 -1 360 -13z m-3195 -431 c3 -5 -1 -9 -9 -9 -8 0 -12 4 -9 9 3
4 7 8 9 8 2 0 6 -4 9 -8z m51 -2 c3 -5 -3 -10 -14 -10 -12 0 -21 5 -21 10 0 6
6 10 14 10 8 0 18 -4 21 -10z m5925 -16 c0 -8 -19 -13 -24 -6 -3 5 1 9 9 9 8
0 15 -2 15 -3z m-110 -24 c0 -5 -5 -10 -11 -10 -5 0 -7 5 -4 10 3 6 8 10 11
10 2 0 4 -4 4 -10z m40 6 c0 -2 -7 -7 -16 -10 -8 -3 -12 -2 -9 4 6 10 25 14
25 6z m-110 -40 c0 -2 -8 -10 -17 -17 -16 -13 -17 -12 -4 4 13 16 21 21 21 13z
m-65 -46 c-3 -5 -12 -10 -18 -10 -7 0 -6 4 3 10 19 12 23 12 15 0z m-4745 -48
c-8 -3 -24 -9 -35 -14 -14 -7 -13 -4 5 11 13 10 29 17 34 13 6 -3 4 -8 -4 -10z
m1678 -229 c-10 -2 -28 -2 -40 0 -13 2 -5 4 17 4 22 1 32 -1 23 -4z m189 1
c13 -4 20 -10 17 -15 -3 -5 5 -9 18 -10 13 0 31 -3 40 -7 10 -4 -66 -7 -167
-7 -114 0 -175 3 -162 9 12 4 73 8 136 7 69 0 111 3 105 8 -5 5 -22 11 -39 14
l-30 4 30 1 c17 1 40 -1 52 -4z m143 -34 c0 -5 12 -11 28 -11 18 -1 21 -3 9
-6 -24 -6 -67 5 -67 17 0 6 7 10 15 10 8 0 15 -4 15 -10z m-800 -90 c-8 -5
-19 -10 -25 -10 -5 0 -3 5 5 10 8 5 20 10 25 10 6 0 3 -5 -5 -10z m-260 -40
c-20 -13 -33 -13 -25 0 3 6 14 10 23 10 15 0 15 -2 2 -10z m2620 -51 c0 -6 -4
-7 -10 -4 -5 3 -10 11 -10 16 0 6 5 7 10 4 6 -3 10 -11 10 -16z m1365 -237
c-3 -3 -11 0 -18 7 -9 10 -8 11 6 5 10 -3 15 -9 12 -12z m-160 -62 c-3 -5 -14
-10 -23 -9 -14 0 -13 2 3 9 27 11 27 11 20 0z m-2927 -37 c-26 -2 -71 -2 -100
0 -29 2 -8 3 47 3 55 0 79 -1 53 -3z m115 0 c-7 -2 -19 -2 -25 0 -7 3 -2 5 12
5 14 0 19 -2 13 -5z m2480 -30 c-7 -2 -21 -2 -30 0 -10 3 -4 5 12 5 17 0 24
-2 18 -5z m-2123 -29 c0 -8 -19 -13 -24 -6 -3 5 1 9 9 9 8 0 15 -2 15 -3z
m988 -8 c-7 -8 -15 -12 -17 -11 -5 6 10 25 20 25 5 0 4 -6 -3 -14z m-1231
-147 c54 -11 105 -22 114 -24 73 -16 288 -104 449 -182 107 -53 227 -111 265
-129 l70 -33 -153 -1 c-143 0 -157 2 -230 28 -166 62 -214 73 -225 55 -2 -5
-2 -2 0 6 2 8 -2 11 -11 8 -8 -3 -17 1 -20 9 -3 8 -18 14 -38 13 -21 -1 -26
-3 -13 -6 43 -10 36 -22 -11 -18 -116 9 -143 16 -137 33 4 13 3 14 -5 3 -7
-10 -22 -11 -59 -6 -27 3 -62 8 -78 10 -17 2 -106 5 -200 5 -177 2 -273 -9
-429 -50 -51 -14 -81 -18 -85 -11 -7 11 -71 6 -80 -6 -3 -5 -10 -8 -16 -9 -5
0 -23 -4 -38 -8 -21 -6 -25 -11 -15 -17 10 -7 9 -9 -5 -9 -10 0 -25 -7 -33
-15 -12 -12 -44 -15 -150 -15 -74 0 -134 3 -134 8 0 8 87 73 186 140 73 49
257 137 329 157 17 5 32 9 35 10 44 13 100 28 119 32 14 2 28 6 31 8 6 4 22 7
120 25 89 16 342 9 447 -11z m923 -17 c0 -4 -18 -6 -40 -4 -22 2 -40 6 -40 8
0 2 18 4 40 4 22 0 40 -3 40 -8z m76 0 c-7 -12 -66 -14 -66 -2 0 5 16 10 36
10 19 0 33 -4 30 -8z m-2662 -148 c3 -8 2 -12 -4 -9 -6 3 -10 10 -10 16 0 14
7 11 14 -7z m16 -64 c5 -19 6 -29 1 -24 -10 10 -26 72 -17 63 4 -4 11 -21 16
-39z"/>
<path d="M6060 8565 c-30 -32 -30 -86 -2 -125 49 -66 68 -211 42 -312 -17 -64
-72 -159 -155 -267 -82 -107 -97 -149 -71 -199 20 -38 44 -52 89 -52 41 0 59
15 118 95 185 250 227 351 227 535 1 104 -11 155 -57 246 -47 96 -139 134
-191 79z"/>
<path d="M4560 8451 c0 -4 -11 -6 -24 -4 -36 7 -69 -41 -63 -90 8 -59 33 -80
86 -74 23 3 50 12 59 20 17 17 24 76 11 92 -4 6 -9 15 -11 20 -1 6 -6 9 -10 8
-5 -2 -7 2 -5 8 1 6 -8 15 -20 20 -13 4 -23 5 -23 0z m20 -141 c0 -5 -5 -10
-11 -10 -5 0 -7 5 -4 10 3 6 8 10 11 10 2 0 4 -4 4 -10z"/>
<path d="M5554 8442 c-36 -24 -44 -97 -16 -133 15 -18 29 -22 67 -22 38 0 52
4 67 22 46 57 5 141 -69 141 -21 0 -43 -4 -49 -8z"/>
<path d="M3565 8140 c-3 -5 -2 -10 3 -10 5 0 7 -11 4 -25 -4 -23 -2 -25 37
-25 35 0 41 -3 41 -21 0 -11 -5 -17 -10 -14 -6 3 -19 4 -29 0 -13 -4 -17 -13
-15 -35 3 -24 0 -28 -17 -27 -12 1 -32 11 -45 24 -13 12 -24 19 -24 15 1 -10
30 -47 30 -38 0 5 7 3 15 -4 21 -17 71 -3 95 27 21 27 27 83 9 83 -5 0 -8 4
-5 9 3 5 -2 15 -12 22 -15 13 -16 12 -3 -3 7 -10 9 -18 3 -18 -15 0 -33 26
-24 36 4 4 -1 2 -10 -5 -16 -12 -22 -9 -19 12 2 11 -17 9 -24 -3z"/>
<path d="M6510 8098 c-28 -45 -25 -75 9 -109 36 -36 70 -37 110 -3 35 29 42
76 16 110 -11 13 -14 14 -13 4 3 -15 1 -16 -74 -10 -26 2 -34 4 -20 7 12 2 22
11 22 19 0 26 -30 15 -50 -18z"/>
<path d="M3501 8054 c0 -11 3 -14 6 -6 3 7 2 16 -1 19 -3 4 -6 -2 -5 -13z"/>
<path d="M2820 7479 c0 -16 -4 -19 -22 -14 -17 4 -19 4 -9 -3 16 -11 7 -67 -9
-57 -6 3 -10 -1 -10 -10 0 -12 5 -15 18 -10 14 5 15 4 5 -6 -19 -19 -16 -26
12 -26 14 0 25 4 25 9 0 5 5 6 10 3 6 -4 8 -11 5 -16 -4 -5 0 -9 7 -9 10 0 9
-3 -2 -11 -13 -9 -13 -10 0 -6 8 2 14 10 13 16 -2 6 2 11 7 11 6 0 10 -5 10
-11 0 -5 5 -7 10 -4 6 3 10 15 10 26 0 10 6 19 13 19 8 0 7 4 -3 10 -12 7 -12
10 -1 10 7 0 11 6 8 14 -3 7 -1 18 5 24 15 15 -29 55 -53 49 -10 -3 -19 -1
-19 4 0 5 -7 9 -15 9 -8 0 -15 -9 -15 -21z"/>
<path d="M7203 7474 c-3 -8 -9 -11 -14 -8 -14 8 -31 -47 -25 -81 8 -42 38 -65
85 -65 45 0 69 22 77 72 5 27 1 40 -17 61 -28 30 -97 44 -106 21z m97 -68 c0
-49 -8 -60 -30 -44 -12 8 -11 9 4 4 16 -5 18 -1 14 39 -2 25 0 45 4 45 5 0 8
-20 8 -44z m-26 6 c2 -4 -11 -6 -30 -4 -19 2 -34 6 -34 8 0 8 59 4 64 -4z
m-74 -32 c0 -5 -2 -10 -4 -10 -3 0 -8 5 -11 10 -3 6 -1 10 4 10 6 0 11 -4 11
-10z"/>
<path d="M7012 7405 c-17 -37 -14 -45 4 -12 9 16 14 31 11 33 -2 2 -9 -7 -15
-21z"/>
<path d="M4366 7253 c-6 -14 -5 -15 5 -6 7 7 10 15 7 18 -3 3 -9 -2 -12 -12z"/>
<path d="M3340 5489 c0 -5 5 -7 10 -4 6 3 10 8 10 11 0 2 -4 4 -10 4 -5 0 -10
-5 -10 -11z"/>
<path d="M4852 4630 c-160 -23 -303 -162 -332 -321 -36 -196 66 -345 329 -484
73 -38 144 -83 157 -98 64 -76 -12 -177 -134 -177 -69 0 -163 35 -214 80 -52
45 -318 396 -595 785 -85 118 -118 152 -168 169 -79 28 -169 -21 -194 -103
-17 -60 -15 -1113 3 -1164 18 -51 42 -76 92 -98 82 -37 185 13 218 106 4 11 7
137 6 280 0 148 3 256 8 250 5 -6 58 -71 117 -145 207 -257 338 -368 494 -420
85 -28 136 -35 246 -34 252 3 414 115 461 319 2 11 5 55 5 98 0 66 -4 87 -29
140 -55 115 -129 180 -311 272 -112 56 -149 81 -165 115 -19 37 -2 86 37 111
44 27 132 19 190 -18 78 -49 169 -42 223 19 65 72 6 212 -116 273 -89 45 -211
62 -328 45z"/>
<path d="M1595 4609 c-151 -24 -259 -82 -345 -186 -159 -192 -158 -407 2 -587
81 -91 154 -133 368 -211 97 -36 138 -61 161 -99 38 -62 15 -138 -52 -176 -36
-19 -51 -22 -118 -18 -87 5 -116 18 -217 95 -79 59 -121 72 -178 53 -104 -34
-156 -149 -110 -245 37 -80 154 -166 284 -210 88 -30 241 -42 320 -26 30 6 64
13 76 15 70 14 212 103 272 172 104 117 125 330 47 482 -37 72 -118 139 -242
198 -324 154 -322 153 -354 197 -26 35 -30 49 -26 81 19 141 223 193 350 90
83 -68 136 -84 208 -64 101 28 146 153 89 246 -45 72 -176 154 -293 183 -62
15 -179 20 -242 10z"/>
<path d="M2501 4588 c-25 -13 -54 -36 -65 -51 -21 -28 -21 -39 -21 -570 l0
-542 34 -68 c40 -83 126 -174 201 -213 161 -84 384 -83 551 2 119 60 206 161
251 293 23 65 23 71 23 562 l0 496 -28 36 c-41 54 -78 70 -150 65 -55 -4 -63
-8 -97 -45 -57 -60 -60 -89 -60 -547 0 -372 -1 -407 -19 -459 -36 -105 -89
-148 -181 -150 -58 0 -107 27 -142 80 -47 72 -48 81 -48 546 0 427 -1 442 -21
484 -44 91 -142 126 -228 81z"/>
<path d="M5612 4593 c-40 -19 -66 -55 -81 -108 -7 -27 -11 -215 -11 -580 0
-512 1 -542 20 -580 25 -53 39 -69 77 -88 65 -34 155 -14 204 46 30 38 39 100
39 286 l0 181 115 0 115 0 0 -215 c0 -237 5 -262 58 -306 73 -62 203 -35 251
52 l23 41 -1 580 c-1 318 -6 589 -11 602 -51 135 -239 139 -311 6 -11 -20 -13
-74 -11 -248 l3 -223 -117 3 -116 3 2 211 1 210 -28 54 c-33 63 -77 90 -143
90 -25 0 -60 -8 -78 -17z"/>
<path d="M7522 4594 c-34 -14 -67 -51 -81 -87 -7 -18 -11 -147 -11 -350 0
-376 18 -364 -145 -98 -326 531 -334 541 -443 541 -58 0 -106 -28 -136 -80
-20 -34 -21 -50 -24 -649 l-3 -614 25 -52 c61 -123 235 -132 294 -15 21 43 22
52 22 359 l0 315 67 -109 c250 -413 367 -595 402 -629 41 -39 129 -47 189 -17
81 41 77 7 80 711 2 434 0 637 -8 663 -29 100 -135 151 -228 111z"/>
<path d="M8174 4566 c-28 -13 -62 -39 -75 -57 l-24 -34 -3 -657 c-2 -633 -2
-659 17 -695 26 -51 58 -79 111 -98 36 -13 99 -15 372 -15 339 1 366 4 421 44
35 25 67 85 67 122 0 49 -38 112 -84 139 -43 25 -44 25 -304 25 l-262 0 0 159
0 159 158 4 c137 3 162 6 192 24 77 45 100 126 59 211 -35 72 -68 83 -254 83
l-155 0 0 125 0 125 231 0 c148 0 247 4 273 12 87 25 130 78 128 160 -1 54
-18 92 -59 130 -55 51 -73 54 -428 56 l-330 2 -51 -24z"/>
<path d="M1359 2765 c-53 -29 -53 -116 0 -144 13 -8 266 -11 819 -11 771 0
801 1 823 19 32 25 31 93 0 124 l-22 22 -797 2 c-679 2 -801 0 -823 -12z"/>
<path d="M7024 2770 c-54 -22 -70 -91 -31 -135 l22 -26 864 1 865 0 23 22 c31
29 32 97 2 124 -20 18 -51 19 -873 21 -468 1 -861 -2 -872 -7z"/>
<path d="M5110 2668 c0 -9 7 -19 16 -22 25 -10 27 -1 4 19 -17 15 -20 16 -20
3z"/>
<path d="M4908 2653 c6 -2 18 -2 25 0 6 3 1 5 -13 5 -14 0 -19 -2 -12 -5z"/>
<path d="M5990 2630 c0 -5 12 -10 28 -9 24 0 25 1 7 9 -27 12 -35 12 -35 0z"/>
<path d="M5890 2620 c0 -5 5 -10 11 -10 5 0 7 5 4 10 -3 6 -8 10 -11 10 -2 0
-4 -4 -4 -10z"/>
<path d="M5924 2619 c-6 -11 8 -17 29 -14 20 4 23 -11 5 -18 -10 -4 -10 -6 -1
-6 10 -1 40 37 31 40 -17 5 -60 3 -64 -2z"/>
<path d="M4043 2595 c19 -18 41 -19 55 -2 8 9 1 13 -30 15 -36 2 -39 1 -25
-13z"/>
<path d="M5992 2598 c-7 -7 -12 -18 -12 -25 0 -11 5 -11 21 -2 16 8 18 13 9
19 -10 6 -9 9 1 13 8 3 9 6 4 6 -6 1 -16 -4 -23 -11z"/>
<path d="M5885 2591 c-3 -5 8 -9 25 -9 21 1 27 4 18 9 -17 11 -35 11 -43 0z"/>
<path d="M5935 2560 l-30 -8 27 -1 c15 0 30 4 33 9 3 6 5 9 3 9 -2 -1 -16 -5
-33 -9z"/>
<path d="M6400 2550 c0 -6 7 -10 15 -10 8 0 15 2 15 4 0 2 -7 6 -15 10 -8 3
-15 1 -15 -4z"/>
<path d="M5163 2288 c-36 -9 -63 -41 -63 -75 0 -18 6 -23 25 -23 13 0 28 6 32
14 13 23 49 28 67 11 26 -26 19 -40 -41 -91 -70 -58 -92 -84 -93 -106 0 -16
12 -18 110 -18 115 0 120 2 104 44 -4 11 -19 16 -53 16 l-46 0 36 33 c50 44
68 84 58 123 -16 57 -75 88 -136 72z"/>
<path d="M5513 2243 c-30 -32 -61 -71 -69 -86 -18 -34 -15 -82 6 -83 8 -1 39
-2 68 -2 l52 -2 0 -35 c0 -33 2 -35 35 -35 33 0 35 2 35 34 0 21 6 36 15 40 8
3 15 17 15 31 0 18 -5 25 -20 25 -18 0 -20 7 -20 79 0 63 -3 80 -16 85 -33 13
-48 4 -101 -51z m67 -73 c0 -25 -5 -40 -16 -44 -24 -9 -54 -7 -54 4 0 16 54
88 63 83 4 -2 7 -21 7 -43z"/>
<path d="M4406 2259 c-33 -39 -34 -69 -3 -69 13 0 32 9 42 20 12 13 29 20 44
18 21 -2 27 -9 29 -35 3 -28 -3 -36 -52 -73 -57 -43 -86 -78 -86 -105 0 -13
18 -15 110 -15 99 0 110 2 110 18 0 27 -20 42 -58 42 l-34 0 35 39 c47 52 56
99 28 145 -25 40 -38 46 -96 46 -36 0 -48 -5 -69 -31z"/>
<path d="M4780 2284 c-50 -15 -84 -140 -56 -206 40 -93 157 -115 216 -41 42
54 38 163 -9 215 -24 26 -36 31 -82 34 -30 1 -61 1 -69 -2z m99 -80 c25 -31
26 -62 6 -110 -12 -30 -19 -35 -42 -32 -38 4 -67 56 -59 103 13 66 59 85 95
39z"/>
</g>
</svg>
